<svg width="592" height="73" viewBox="0 0 592 73" fill="none" xmlns="http://www.w3.org/2000/svg">
<path d="M16.416 55.488C11.616 55.488 7.64801 54.08 4.51201 51.264C1.50401 48.448 1.44243e-05 44.896 1.44243e-05 40.608C1.44243e-05 36.192 1.15201 31.808 3.45601 27.456C5.76001 23.104 8.76801 19.2 12.48 15.744C14.336 14.016 16.352 12.448 18.528 11.04C20.704 9.568 23.04 8.288 25.536 7.2C28.16 5.984 30.72 5.12 33.216 4.608C35.776 4.032 38.176 3.744 40.416 3.744C44.512 3.744 47.904 4.544 50.592 6.144C52.064 2.688 53.472 0.960005 54.816 0.960005C56.992 0.960005 58.08 1.37601 58.08 2.20801C56.544 4.19201 55.296 5.792 54.336 7.008C53.376 8.224 52.736 9.088 52.416 9.60001C48.64 14.72 46.752 18.464 46.752 20.832L47.136 22.272C47.136 22.4 47.072 22.464 46.944 22.464C46.176 22.464 45.792 21.632 45.792 19.968C45.792 17.088 47.072 13.056 49.632 7.872C47.648 6.08 44.864 5.184 41.28 5.184C35.776 5.184 30.176 6.94401 24.48 10.464C18.784 13.92 14.016 18.336 10.176 23.712C8.25601 26.336 6.84801 28.896 5.95201 31.392C5.12001 33.824 4.70402 36.16 4.70402 38.4C4.70402 41.216 5.34401 43.744 6.62401 45.984C7.90401 48.224 9.66401 49.952 11.904 51.168C14.144 52.448 16.672 53.088 19.488 53.088C23.968 53.088 28.224 52.192 32.256 50.4C36.352 48.544 40.192 45.728 43.776 41.952C44.672 41.056 45.312 40.608 45.696 40.608C45.952 40.608 46.08 40.8 46.08 41.184C46.08 41.76 45.792 42.368 45.216 43.008C41.824 46.848 37.376 49.888 31.872 52.128C26.304 54.368 21.152 55.488 16.416 55.488ZM51.7148 51.264C51.1388 51.264 50.4988 51.104 49.7948 50.784C49.0908 50.464 48.7388 50.08 48.7388 49.632C48.7388 48.544 49.7948 44.704 51.9068 38.112C54.0188 31.456 55.0748 26.464 55.0748 23.136C55.0748 22.112 54.6268 21.536 53.7308 21.408C52.8348 21.28 52.3868 21.088 52.3868 20.832C52.3868 20.256 52.8668 19.968 53.8268 19.968C58.1148 19.968 60.2588 21.728 60.2588 25.248C60.2588 26.272 59.2028 30.048 57.0908 36.576C60.5468 30.944 64.3868 27.072 68.6108 24.96C69.6988 22.656 71.2028 21.504 73.1228 21.504C74.9788 21.504 76.0028 21.664 76.1948 21.984C76.1308 21.92 76.0028 22.016 75.8108 22.272C75.6188 22.528 75.3948 22.816 75.1388 23.136C74.1148 24.608 73.2188 26.048 72.4508 27.456C71.6828 28.8 71.2668 29.856 71.2028 30.624C71.2028 32.352 71.8108 33.408 73.0268 33.792C73.1548 33.856 73.2828 33.888 73.4108 33.888C73.6028 33.888 73.6988 33.952 73.6988 34.08C73.6988 34.592 73.0588 34.848 71.7788 34.848C70.5628 34.848 69.5068 34.368 68.6108 33.408C68.0988 32.832 67.7468 32.224 67.5548 31.584C67.3628 30.88 67.2668 30.208 67.2668 29.568C67.2668 28.544 67.4268 27.616 67.7468 26.784C66.1468 28 64.7068 29.28 63.4268 30.624C62.1468 31.904 60.9628 33.184 59.8748 34.464C57.8268 37.088 56.3868 39.424 55.5548 41.472C54.7868 43.456 54.2428 45.152 53.9228 46.56C53.5388 48.096 53.2188 49.28 52.9628 50.112C52.7068 50.88 52.2908 51.264 51.7148 51.264ZM79.5323 52.128C74.0923 52.128 71.3723 49.6 71.3723 44.544C71.3723 40.64 73.2923 35.904 77.1323 30.336C81.1003 24.768 84.8763 21.984 88.4603 21.984C89.9963 21.984 91.3403 22.496 92.4923 23.52C93.7083 24.48 94.3163 25.664 94.3163 27.072C94.3163 29.44 92.8123 31.84 89.8043 34.272C86.8603 36.64 83.9483 37.824 81.0683 37.824C80.4923 37.824 80.2043 37.696 80.2043 37.44L80.4923 36.96C87.8523 34.656 91.5323 30.88 91.5323 25.632C91.5323 24.864 91.2763 24.48 90.7643 24.48C90.0603 24.48 88.7803 25.216 86.9243 26.688C85.3243 27.968 83.8203 29.44 82.4123 31.104C81.0683 32.768 79.8523 34.496 78.7643 36.288C76.4603 40.192 75.3083 43.456 75.3083 46.08C75.3083 48.64 76.3003 49.92 78.2843 49.92C80.5883 49.92 83.1163 48.736 85.8683 46.368C86.7643 45.536 87.7243 44.608 88.7483 43.584C89.7723 42.496 90.8923 41.312 92.1083 40.032C94.4763 37.472 95.7243 36.192 95.8523 36.192C96.2363 36.192 96.4283 36.352 96.4283 36.672C96.4283 36.928 96.3643 37.184 96.2363 37.44C89.5163 47.232 83.9483 52.128 79.5323 52.128ZM98.7038 51.84C97.4238 51.84 96.2398 51.264 95.1518 50.112C94.1278 48.896 93.6158 47.36 93.6158 45.504C93.6158 43.648 94.7358 40.768 96.9758 36.864C99.2158 33.024 101.968 29.568 105.232 26.496C108.432 23.488 111.184 21.984 113.488 21.984H114.448C116.816 21.984 118.832 22.464 120.496 23.424C122.16 24.32 122.992 25.536 122.992 27.072C122.992 27.776 122.704 28.128 122.128 28.128C121.936 28.128 121.84 28.032 121.84 27.84C120.816 25.472 119.248 24.288 117.136 24.288C113.488 24.288 109.328 27.296 104.656 33.312C99.9838 39.2 97.6478 43.744 97.6478 46.944C97.6478 48.16 97.9678 48.768 98.6078 48.768C101.488 48.768 107.536 42.272 116.752 29.28C116.688 29.344 116.72 29.344 116.848 29.28C117.04 29.152 117.2 29.088 117.328 29.088C117.648 29.088 118.32 29.408 119.344 30.048C120.368 30.624 120.88 31.136 120.88 31.584C120.88 31.584 120.752 31.808 120.496 32.256C120.24 32.64 119.92 33.248 119.536 34.08C118.512 36.256 117.712 38.4 117.136 40.512C116.624 42.56 116.368 44.352 116.368 45.888C116.368 49.28 117.2 50.976 118.864 50.976L119.824 50.784L120.016 50.88C120.016 51.456 119.216 51.744 117.616 51.744C116.08 51.744 114.8 51.04 113.776 49.632C112.816 48.16 112.336 46.208 112.336 43.776C112.336 41.408 112.752 38.784 113.584 35.904C113.52 36.096 113.296 36.448 112.912 36.96C112.528 37.472 111.92 38.368 111.088 39.648C105.84 47.776 101.712 51.84 98.7038 51.84ZM129.9 52.896C127.084 52.896 125.676 51.392 125.676 48.384C125.676 45.696 126.572 42.176 128.364 37.824C129.068 36.16 129.772 34.496 130.476 32.832C131.18 31.168 131.98 29.28 132.876 27.168C130.7 26.336 129.612 25.088 129.612 23.424C129.612 22.912 129.74 22.56 129.996 22.368C130.956 22.816 132.428 23.136 134.412 23.328C136.524 18.592 137.58 15.584 137.58 14.304C137.58 12.896 137.324 12.192 136.812 12.192L134.892 12.672C134.7 12.672 134.604 12.576 134.604 12.384C134.604 11.872 134.988 11.488 135.756 11.232C136.524 10.912 137.1 10.752 137.484 10.752C140.3 10.752 141.708 12.352 141.708 15.552C141.708 17.408 141.132 19.84 139.98 22.848C140.236 23.104 141.388 23.232 143.436 23.232C145.548 23.232 147.148 23.008 148.236 22.56C149.26 22.048 149.996 21.792 150.444 21.792C150.636 21.792 150.732 21.856 150.732 21.984C150.732 22.176 150.572 22.432 150.252 22.752C148.908 23.904 147.308 24.896 145.452 25.728C143.66 26.56 141.58 27.136 139.212 27.456H138.924C138.86 27.456 138.764 27.488 138.636 27.552C138.508 27.552 138.252 27.616 137.868 27.744C132.044 39.328 129.132 46.688 129.132 49.824C129.132 50.848 129.516 51.36 130.284 51.36L132.972 50.784L133.068 50.88C133.068 52.224 132.012 52.896 129.9 52.896ZM149.47 52.128C144.03 52.128 141.31 49.6 141.31 44.544C141.31 40.64 143.23 35.904 147.07 30.336C151.038 24.768 154.814 21.984 158.398 21.984C159.934 21.984 161.278 22.496 162.43 23.52C163.646 24.48 164.254 25.664 164.254 27.072C164.254 29.44 162.75 31.84 159.742 34.272C156.798 36.64 153.886 37.824 151.006 37.824C150.43 37.824 150.142 37.696 150.142 37.44L150.43 36.96C157.79 34.656 161.47 30.88 161.47 25.632C161.47 24.864 161.214 24.48 160.702 24.48C159.998 24.48 158.718 25.216 156.862 26.688C155.262 27.968 153.758 29.44 152.35 31.104C151.006 32.768 149.79 34.496 148.702 36.288C146.398 40.192 145.246 43.456 145.246 46.08C145.246 48.64 146.238 49.92 148.222 49.92C150.526 49.92 153.054 48.736 155.806 46.368C156.702 45.536 157.662 44.608 158.686 43.584C159.71 42.496 160.83 41.312 162.046 40.032C164.414 37.472 165.662 36.192 165.79 36.192C166.174 36.192 166.366 36.352 166.366 36.672C166.366 36.928 166.302 37.184 166.174 37.44C159.454 47.232 153.886 52.128 149.47 52.128ZM193.723 72.288C190.715 72.288 189.211 70.88 189.211 68.064C189.211 66.336 190.555 63.168 193.243 58.56C194.587 56.256 196.027 54.048 197.563 51.936C199.163 49.824 200.859 47.776 202.651 45.792C204.379 43.872 207.899 40.544 213.211 35.808C215.835 33.44 218.331 31.136 220.699 28.896C223.131 26.656 225.435 24.512 227.611 22.464C227.867 22.208 228.155 21.6 228.475 20.64C228.795 19.68 229.179 18.208 229.627 16.224C230.459 12.64 230.875 9.92 230.875 8.064C230.875 6.336 230.427 5.472 229.531 5.472C228.251 5.472 225.339 8.192 220.795 13.632C216.251 19.072 209.947 27.392 201.883 38.592L197.179 45.12C196.347 46.848 195.227 47.712 193.819 47.712C192.411 47.712 191.707 47.072 191.707 45.792V45.504L198.427 29.664C200.667 24.544 202.299 19.84 203.323 15.552C203.835 13.376 204.251 11.552 204.571 10.08C204.891 8.608 205.051 7.456 205.051 6.624C205.051 2.72 203.803 0.768002 201.307 0.768002C200.155 0.768002 198.075 1.888 195.067 4.128C193.659 5.216 192.283 6.336 190.939 7.488C189.659 8.576 188.411 9.66401 187.195 10.752C185.211 12.608 184.059 13.856 183.739 14.496C183.803 14.624 183.835 14.688 183.835 14.688H183.643C183.643 14.624 183.675 14.56 183.739 14.496C183.547 14.304 183.579 14.016 183.835 13.632C186.203 9.984 189.115 6.784 192.571 4.03201C195.835 1.34401 198.619 5.72205e-06 200.923 5.72205e-06C205.595 5.72205e-06 207.931 2.94401 207.931 8.832C207.931 15.424 204.987 25.472 199.099 38.976L213.595 18.72C217.499 13.28 220.699 9.248 223.195 6.624C225.691 3.93601 227.451 2.59201 228.475 2.59201C230.523 2.59201 231.547 3.00801 231.547 3.84L230.971 4.416C233.467 6.912 234.715 9.536 234.715 12.288C234.715 13.696 234.459 15.328 233.947 17.184C234.459 16.992 234.907 16.864 235.291 16.8C235.739 16.736 236.123 16.704 236.443 16.704C237.147 16.704 237.499 16.832 237.499 17.088C237.499 17.472 237.019 17.92 236.059 18.432L233.371 19.872C232.347 22.88 230.619 26.496 228.187 30.72C225.819 34.944 222.747 39.744 218.971 45.12C215.387 50.304 212.251 54.624 209.563 58.08C206.939 61.6 204.699 64.352 202.843 66.336C199.067 70.304 196.027 72.288 193.723 72.288ZM192.763 70.176C192.763 70.176 192.923 70.144 193.243 70.08C193.563 70.08 194.299 69.568 195.451 68.544C197.819 66.496 200.347 63.936 203.035 60.864C205.787 57.792 208.667 54.144 211.675 49.92C214.683 45.824 217.403 41.76 219.835 37.728C222.267 33.696 224.347 29.856 226.075 26.208C217.755 33.76 210.875 40.864 205.435 47.52C200.059 54.176 196.027 60.544 193.339 66.624C192.699 68.032 192.347 68.96 192.283 69.408C192.219 69.92 192.379 70.176 192.763 70.176ZM241.727 51.072C236.543 51.072 233.951 48.352 233.951 42.912C233.951 40.736 234.431 38.432 235.391 36C236.415 33.504 237.663 31.488 239.135 29.952C238.431 28.736 238.079 27.232 238.079 25.44C238.079 23.584 238.847 21.92 240.383 20.448C241.919 18.912 243.807 18.144 246.047 18.144C250.207 18.144 253.023 20.32 254.495 24.672C257.503 25.248 259.007 25.952 259.007 26.784C259.007 27.744 258.687 28.224 258.047 28.224L255.647 27.84C255.711 28.48 255.743 29.056 255.743 29.568C255.807 30.08 255.839 30.528 255.839 30.912C255.839 36.16 254.495 40.864 251.807 45.024C249.119 49.056 245.759 51.072 241.727 51.072ZM240.479 29.088C244.831 25.824 247.839 24.192 249.503 24.192H249.791C248.895 21.952 247.231 20.832 244.799 20.832C243.711 20.832 242.815 21.216 242.111 21.984C241.407 22.688 240.895 23.552 240.575 24.576C240.255 25.6 240.095 26.528 240.095 27.36C240.095 28.128 240.223 28.704 240.479 29.088ZM241.631 49.92C244.255 49.92 246.719 47.872 249.023 43.776C251.327 39.616 252.479 35.648 252.479 31.872C252.479 30.208 252.191 28.864 251.615 27.84C249.247 28.224 246.655 29.728 243.839 32.352C244.479 32.8 244.991 33.024 245.375 33.024C245.759 32.96 245.983 32.928 246.047 32.928C246.367 32.928 246.527 33.088 246.527 33.408C246.527 33.92 246.111 34.176 245.279 34.176C244.575 34.176 243.775 33.952 242.879 33.504C239.487 37.472 237.791 41.216 237.791 44.736C237.791 48.192 239.071 49.92 241.631 49.92ZM281.701 52.32C279.845 52.32 278.373 51.456 277.285 49.728C276.837 48.832 276.453 47.904 276.133 46.944C275.877 45.92 275.749 44.736 275.749 43.392C275.749 42.112 275.877 40.64 276.133 38.976C276.453 37.312 276.837 35.424 277.285 33.312C274.789 37.408 272.709 40.736 271.045 43.296C269.381 45.792 268.101 47.584 267.205 48.672C265.605 50.784 263.973 51.84 262.309 51.84C260.709 51.84 259.365 51.264 258.277 50.112C257.253 48.896 256.741 47.584 256.741 46.176C256.741 43.552 258.149 39.136 260.965 32.928C263.781 26.592 265.189 23.36 265.189 23.232L264.325 21.504C264.325 21.312 264.549 21.216 264.997 21.216C265.573 21.216 266.629 21.536 268.165 22.176C269.765 22.816 270.565 23.36 270.565 23.808C270.245 24.448 269.637 25.664 268.741 27.456C267.909 29.184 266.757 31.52 265.285 34.464C262.469 40.416 261.061 44.352 261.061 46.272C261.061 48.256 261.477 49.248 262.309 49.248C263.333 49.248 264.805 48.096 266.725 45.792C267.749 44.512 268.709 43.232 269.605 41.952C270.501 40.672 271.429 39.264 272.389 37.728L280.453 24.672C281.413 23.136 282.437 22.368 283.525 22.368C285.701 22.368 286.853 22.784 286.981 23.616C286.853 23.488 286.693 23.68 286.501 24.192C284.709 27.456 283.077 31.392 281.605 36C280.197 40.48 279.493 43.488 279.493 45.024C279.493 48.928 280.197 50.88 281.605 50.88C282.053 50.88 282.981 50.272 284.389 49.056C284.517 49.056 284.581 49.312 284.581 49.824C284.581 51.488 283.621 52.32 281.701 52.32ZM289.371 51.264C288.795 51.264 288.155 51.104 287.451 50.784C286.747 50.464 286.395 50.08 286.395 49.632C286.395 48.544 287.451 44.704 289.563 38.112C291.675 31.456 292.731 26.464 292.731 23.136C292.731 22.112 292.283 21.536 291.387 21.408C290.491 21.28 290.043 21.088 290.043 20.832C290.043 20.256 290.523 19.968 291.483 19.968C295.771 19.968 297.915 21.728 297.915 25.248C297.915 26.272 296.859 30.048 294.747 36.576C298.203 30.944 302.043 27.072 306.267 24.96C307.355 22.656 308.859 21.504 310.779 21.504C312.635 21.504 313.659 21.664 313.851 21.984C313.787 21.92 313.659 22.016 313.467 22.272C313.275 22.528 313.051 22.816 312.795 23.136C311.771 24.608 310.875 26.048 310.107 27.456C309.339 28.8 308.923 29.856 308.859 30.624C308.859 32.352 309.467 33.408 310.683 33.792C310.811 33.856 310.939 33.888 311.067 33.888C311.259 33.888 311.355 33.952 311.355 34.08C311.355 34.592 310.715 34.848 309.435 34.848C308.219 34.848 307.163 34.368 306.267 33.408C305.755 32.832 305.403 32.224 305.211 31.584C305.019 30.88 304.923 30.208 304.923 29.568C304.923 28.544 305.083 27.616 305.403 26.784C303.803 28 302.363 29.28 301.083 30.624C299.803 31.904 298.619 33.184 297.531 34.464C295.483 37.088 294.043 39.424 293.211 41.472C292.443 43.456 291.899 45.152 291.579 46.56C291.195 48.096 290.875 49.28 290.619 50.112C290.363 50.88 289.947 51.264 289.371 51.264ZM333.179 59.424C332.219 59.424 331.323 58.528 330.491 56.736C329.659 55.008 329.243 53.024 329.243 50.784C329.243 41.888 334.491 28.352 344.987 10.176C345.243 9.664 345.563 9.024 345.947 8.25601C346.395 7.424 346.939 6.464 347.579 5.37601C348.091 4.48001 348.635 3.71201 349.211 3.07201C349.851 2.368 350.363 2.016 350.747 2.016C351.579 2.016 352.475 2.208 353.435 2.59201C354.459 2.97601 354.971 3.424 354.971 3.936C347.867 15.584 343.291 23.488 341.243 27.648C350.587 14.656 358.747 8.16 365.723 8.16C369.115 8.16 370.811 10.112 370.811 14.016C370.811 18.944 367.835 27.456 361.883 39.552C363.547 38.016 365.787 35.84 368.603 33.024C371.483 30.208 374.907 26.752 378.875 22.656C379.195 22.208 379.803 21.504 380.699 20.544C381.595 19.52 382.491 18.496 383.387 17.472C385.883 14.848 387.579 13.536 388.475 13.536C388.667 13.536 388.763 13.632 388.763 13.824C374.363 29.632 364.571 39.808 359.387 44.352L357.563 48.192C357.115 48.832 356.091 49.152 354.491 49.152C352.891 49.152 352.091 48.704 352.091 47.808C352.027 47.808 354.427 42.912 359.291 33.12C364.219 23.264 366.683 16.736 366.683 13.536C366.683 11.744 365.979 10.848 364.571 10.848C361.051 10.848 357.051 12.928 352.571 17.088C350.395 19.136 348.251 21.472 346.139 24.096C344.027 26.72 341.947 29.536 339.899 32.544C337.275 36.448 335.323 40.16 334.043 43.68C332.827 47.136 332.219 50.4 332.219 53.472C332.219 54.944 332.347 56.064 332.603 56.832C332.859 57.664 333.051 58.144 333.179 58.272C333.947 59.04 333.947 59.424 333.179 59.424ZM384.827 55.104C382.971 55.104 381.531 54.208 380.507 52.416C379.483 50.624 378.971 48.416 378.971 45.792C378.971 44.576 379.067 43.264 379.259 41.856C379.451 40.384 379.707 38.784 380.027 37.056C380.411 35.2 380.859 33.312 381.371 31.392C381.883 29.472 382.459 27.52 383.099 25.536C384.379 21.504 386.011 18.112 387.995 15.36C390.043 12.48 392.091 11.04 394.139 11.04C395.099 11.04 395.579 11.232 395.579 11.616C395.579 11.872 394.427 14.08 392.123 18.24C385.979 29.376 382.907 38.752 382.907 46.368C382.907 51.36 383.739 53.856 385.403 53.856C386.939 53.856 389.147 50.496 392.027 43.776C392.475 42.944 392.827 42.528 393.083 42.528C393.275 42.528 393.371 42.752 393.371 43.2C393.371 43.584 393.339 43.872 393.275 44.064C391.483 51.424 388.667 55.104 384.827 55.104ZM401.564 52.128C396.124 52.128 393.404 49.6 393.404 44.544C393.404 40.64 395.324 35.904 399.164 30.336C403.132 24.768 406.908 21.984 410.492 21.984C412.028 21.984 413.372 22.496 414.524 23.52C415.74 24.48 416.348 25.664 416.348 27.072C416.348 29.44 414.844 31.84 411.836 34.272C408.892 36.64 405.98 37.824 403.1 37.824C402.524 37.824 402.236 37.696 402.236 37.44L402.524 36.96C409.884 34.656 413.564 30.88 413.564 25.632C413.564 24.864 413.308 24.48 412.796 24.48C412.092 24.48 410.812 25.216 408.956 26.688C407.356 27.968 405.852 29.44 404.444 31.104C403.1 32.768 401.884 34.496 400.796 36.288C398.492 40.192 397.34 43.456 397.34 46.08C397.34 48.64 398.332 49.92 400.316 49.92C402.62 49.92 405.148 48.736 407.9 46.368C408.796 45.536 409.756 44.608 410.78 43.584C411.804 42.496 412.924 41.312 414.14 40.032C416.508 37.472 417.756 36.192 417.884 36.192C418.268 36.192 418.46 36.352 418.46 36.672C418.46 36.928 418.396 37.184 418.268 37.44C411.548 47.232 405.98 52.128 401.564 52.128ZM421.186 51.264C420.546 51.264 419.874 51.104 419.17 50.784C418.466 50.464 418.114 50.08 418.114 49.632C418.114 48.544 419.17 44.704 421.282 38.112C423.394 31.456 424.45 26.464 424.45 23.136C424.45 22.112 424.002 21.536 423.106 21.408C422.21 21.28 421.762 21.088 421.762 20.832C421.762 20.256 422.242 19.968 423.202 19.968C427.49 19.968 429.634 21.728 429.634 25.248C429.634 26.976 428.898 29.952 427.426 34.176L429.634 30.432C431.17 27.808 432.706 25.76 434.242 24.288C435.778 22.752 437.474 21.984 439.33 21.984H439.522C442.466 21.984 443.938 23.968 443.938 27.936C443.938 29.536 443.65 31.616 443.074 34.176C442.498 36.736 441.602 39.776 440.386 43.296L453.538 29.088C454.434 28.576 455.586 28.32 456.994 28.32C458.466 28.32 459.202 28.608 459.202 29.184C456.642 36.096 455.362 41.152 455.362 44.352C455.362 47.36 455.906 48.864 456.994 48.864L457.666 46.752C457.858 47.2 457.954 47.872 457.954 48.768C457.954 50.432 457.442 51.264 456.418 51.264C453.09 51.264 451.426 48.384 451.426 42.624C451.426 41.216 451.522 39.616 451.714 37.824C451.97 36.032 452.322 34.048 452.77 31.872C451.938 32.704 451.17 33.568 450.466 34.464C449.826 35.296 449.122 36.256 448.354 37.344L443.362 44.352C440.61 48.256 438.914 50.208 438.274 50.208C436.098 50.208 435.01 49.824 435.01 49.056C435.01 48.992 435.362 47.488 436.066 44.544C438.306 36.096 439.426 30.432 439.426 27.552C439.426 26.208 439.01 25.536 438.178 25.536C435.81 25.536 432.61 29.024 428.578 36C427.874 37.28 427.074 38.816 426.178 40.608C425.346 42.336 424.578 44 423.874 45.6C423.746 45.984 423.458 46.624 423.01 47.52C422.626 48.416 422.242 49.28 421.858 50.112C421.474 50.88 421.25 51.264 421.186 51.264ZM467.383 51.072C462.199 51.072 459.607 48.352 459.607 42.912C459.607 40.736 460.087 38.432 461.047 36C462.071 33.504 463.319 31.488 464.791 29.952C464.087 28.736 463.735 27.232 463.735 25.44C463.735 23.584 464.503 21.92 466.039 20.448C467.575 18.912 469.463 18.144 471.703 18.144C475.863 18.144 478.679 20.32 480.151 24.672C483.159 25.248 484.663 25.952 484.663 26.784C484.663 27.744 484.343 28.224 483.703 28.224L481.303 27.84C481.367 28.48 481.399 29.056 481.399 29.568C481.463 30.08 481.495 30.528 481.495 30.912C481.495 36.16 480.151 40.864 477.463 45.024C474.775 49.056 471.415 51.072 467.383 51.072ZM466.135 29.088C470.487 25.824 473.495 24.192 475.159 24.192H475.447C474.551 21.952 472.887 20.832 470.455 20.832C469.367 20.832 468.471 21.216 467.767 21.984C467.063 22.688 466.551 23.552 466.231 24.576C465.911 25.6 465.751 26.528 465.751 27.36C465.751 28.128 465.879 28.704 466.135 29.088ZM467.287 49.92C469.911 49.92 472.375 47.872 474.679 43.776C476.983 39.616 478.135 35.648 478.135 31.872C478.135 30.208 477.847 28.864 477.271 27.84C474.903 28.224 472.311 29.728 469.495 32.352C470.135 32.8 470.647 33.024 471.031 33.024C471.415 32.96 471.639 32.928 471.703 32.928C472.023 32.928 472.183 33.088 472.183 33.408C472.183 33.92 471.767 34.176 470.935 34.176C470.231 34.176 469.431 33.952 468.535 33.504C465.143 37.472 463.447 41.216 463.447 44.736C463.447 48.192 464.727 49.92 467.287 49.92ZM486.621 51.264C486.045 51.264 485.405 51.104 484.701 50.784C483.997 50.464 483.645 50.08 483.645 49.632C483.645 48.544 484.701 44.704 486.813 38.112C488.925 31.456 489.981 26.464 489.981 23.136C489.981 22.112 489.533 21.536 488.637 21.408C487.741 21.28 487.293 21.088 487.293 20.832C487.293 20.256 487.773 19.968 488.733 19.968C493.021 19.968 495.165 21.728 495.165 25.248C495.165 26.272 494.109 30.048 491.997 36.576C495.453 30.944 499.293 27.072 503.517 24.96C504.605 22.656 506.109 21.504 508.029 21.504C509.885 21.504 510.909 21.664 511.101 21.984C511.037 21.92 510.909 22.016 510.717 22.272C510.525 22.528 510.301 22.816 510.045 23.136C509.021 24.608 508.125 26.048 507.357 27.456C506.589 28.8 506.173 29.856 506.109 30.624C506.109 32.352 506.717 33.408 507.933 33.792C508.061 33.856 508.189 33.888 508.317 33.888C508.509 33.888 508.605 33.952 508.605 34.08C508.605 34.592 507.965 34.848 506.685 34.848C505.469 34.848 504.413 34.368 503.517 33.408C503.005 32.832 502.653 32.224 502.461 31.584C502.269 30.88 502.173 30.208 502.173 29.568C502.173 28.544 502.333 27.616 502.653 26.784C501.053 28 499.613 29.28 498.333 30.624C497.053 31.904 495.869 33.184 494.781 34.464C492.733 37.088 491.293 39.424 490.461 41.472C489.693 43.456 489.149 45.152 488.829 46.56C488.445 48.096 488.125 49.28 487.869 50.112C487.613 50.88 487.197 51.264 486.621 51.264ZM521.063 17.568C519.655 17.568 518.503 17.184 517.607 16.416C518.823 15.584 520.103 14.496 521.447 13.152C522.855 11.808 524.295 10.208 525.767 8.352C525.895 8.352 525.959 8.512 525.959 8.832L525.479 11.616C525.159 13.6 524.583 15.104 523.751 16.128C522.919 17.088 522.023 17.568 521.063 17.568ZM511.847 52.512C509.415 52.512 508.199 50.752 508.199 47.232C508.199 41.92 510.119 34.912 513.959 26.208C513.959 25.952 514.119 25.472 514.439 24.768C514.823 24.064 515.111 23.616 515.303 23.424C515.751 22.976 516.359 22.752 517.127 22.752C519.367 22.752 520.583 23.2 520.775 24.096C519.751 25.76 518.759 27.68 517.799 29.856C516.903 32.032 516.007 34.432 515.111 37.056C514.151 39.872 513.447 42.208 512.999 44.064C512.615 45.856 512.423 47.296 512.423 48.384C512.423 49.984 512.839 50.784 513.671 50.784C514.247 50.784 514.983 50.432 515.879 49.728C516.583 49.152 517.063 48.736 517.319 48.48C517.639 48.224 517.927 48 518.183 47.808C518.439 47.808 518.567 47.936 518.567 48.192C518.567 48.896 517.639 49.792 515.783 50.88C513.927 51.968 512.615 52.512 511.847 52.512ZM529.251 52.128C523.811 52.128 521.091 49.6 521.091 44.544C521.091 40.64 523.011 35.904 526.851 30.336C530.819 24.768 534.595 21.984 538.179 21.984C539.715 21.984 541.059 22.496 542.211 23.52C543.427 24.48 544.035 25.664 544.035 27.072C544.035 29.44 542.531 31.84 539.523 34.272C536.579 36.64 533.667 37.824 530.787 37.824C530.211 37.824 529.923 37.696 529.923 37.44L530.211 36.96C537.571 34.656 541.251 30.88 541.251 25.632C541.251 24.864 540.995 24.48 540.483 24.48C539.779 24.48 538.499 25.216 536.643 26.688C535.043 27.968 533.539 29.44 532.131 31.104C530.787 32.768 529.571 34.496 528.483 36.288C526.179 40.192 525.027 43.456 525.027 46.08C525.027 48.64 526.019 49.92 528.003 49.92C530.307 49.92 532.835 48.736 535.587 46.368C536.483 45.536 537.443 44.608 538.467 43.584C539.491 42.496 540.611 41.312 541.827 40.032C544.195 37.472 545.443 36.192 545.571 36.192C545.955 36.192 546.147 36.352 546.147 36.672C546.147 36.928 546.083 37.184 545.955 37.44C539.235 47.232 533.667 52.128 529.251 52.128ZM549.177 53.28C547.577 53.28 546.169 52.992 544.953 52.416C543.801 51.84 543.225 51.296 543.225 50.784C550.585 49.248 554.265 47.392 554.265 45.216C554.265 44.768 553.401 43.776 551.673 42.24C548.345 39.296 546.681 36 546.681 32.352C546.681 29.728 548.313 27.136 551.577 24.576C554.969 21.888 558.041 20.544 560.793 20.544C561.241 20.544 562.137 21.216 563.481 22.56C564.825 23.904 565.497 24.768 565.497 25.152C565.497 25.472 565.337 25.632 565.017 25.632C564.313 25.504 563.737 25.408 563.289 25.344C562.841 25.216 562.521 25.152 562.329 25.152C559.449 25.152 556.473 26.208 553.401 28.32C550.393 30.432 548.889 32.576 548.889 34.752C548.889 35.136 550.393 37.088 553.401 40.608C556.409 44 557.913 46.336 557.913 47.616C557.913 48.896 557.017 50.144 555.225 51.36C554.265 52 553.241 52.48 552.153 52.8C551.129 53.12 550.137 53.28 549.177 53.28ZM572.997 42.336C572.677 42.336 572.517 41.952 572.517 41.184C572.517 39.008 574.533 33.088 578.565 23.424C582.597 13.696 585.285 8.832 586.629 8.832C587.589 8.832 588.677 9.024 589.893 9.408C591.173 9.728 591.781 10.048 591.717 10.368C591.653 10.624 591.653 10.72 591.717 10.656C590.501 12.32 589.093 14.432 587.493 16.992C585.893 19.552 583.973 22.848 581.733 26.88L579.429 31.104C577.445 34.816 575.941 37.632 574.917 39.552C573.893 41.408 573.253 42.336 572.997 42.336ZM568.389 53.472C567.749 53.472 567.429 53.152 567.429 52.512C567.429 50.784 567.845 49.312 568.677 48.096C569.573 46.816 570.789 46.176 572.325 46.176C573.989 46.176 574.821 46.56 574.821 47.328C574.821 47.136 572.677 49.184 568.389 53.472Z" fill="black"/>
</svg>
